<?xml version="1.0" encoding="utf-8"?>
<!-- Uploaded to: SVG Repo, www.svgrepo.com, Generator: SVG Repo Mixer Tools -->
<svg width="800px" height="800px" viewBox="0 0 24 24" fill="none" xmlns="http://www.w3.org/2000/svg">
<circle cx="12" cy="12" r="3" fill="#ffffff"/>
<path d="M12 2L13.09 8.26C13.5 8.09 13.93 8 14.38 8C15.14 8 15.82 8.37 16.21 8.97L21.16 6.16L22.84 7.84L19.03 12.79C19.63 13.18 20 13.86 20 14.62C20 15.07 19.91 15.5 19.74 15.91L26 17L26 19L19.74 20.09C19.91 20.5 20 20.93 20 21.38C20 22.14 19.63 22.82 19.03 23.21L22.84 28.16L21.16 29.84L16.21 26.03C15.82 26.62 15.14 27 14.38 27C13.93 27 13.5 26.91 13.09 26.74L12 33H10L8.91 26.74C8.5 26.91 8.07 27 7.62 27C6.86 27 6.18 26.62 5.79 26.03L0.84 29.84L-0.84 28.16L2.97 23.21C2.37 22.82 2 22.14 2 21.38C2 20.93 2.09 20.5 2.26 20.09L-4 19L-4 17L2.26 15.91C2.09 15.5 2 15.07 2 14.62C2 13.86 2.37 13.18 2.97 12.79L-0.84 7.84L0.84 6.16L5.79 9.97C6.18 9.37 6.86 9 7.62 9C8.07 9 8.5 9.09 8.91 9.26L10 3H12Z" fill="#000000"/>
</svg>
